<?xml version="1.0" encoding="UTF-8"?>
<!DOCTYPE svg PUBLIC "-//W3C//DTD SVG 1.1//EN" "http://www.w3.org/Graphics/SVG/1.1/DTD/svg11.dtd">
<svg xmlns="http://www.w3.org/2000/svg" version="1.1" width="116px" height="134px" style="shape-rendering:geometricPrecision; text-rendering:geometricPrecision; image-rendering:optimizeQuality; fill-rule:evenodd; clip-rule:evenodd" xmlns:xlink="http://www.w3.org/1999/xlink">
<g><path style="opacity:0.946" fill="#fefffe" d="M 23.5,-0.5 C 24.5,-0.5 25.5,-0.5 26.5,-0.5C 27.2847,6.61636 31.2847,10.283 38.5,10.5C 38.67,11.8221 38.3366,12.9887 37.5,14C 31.3333,14.8333 27.8333,18.3333 27,24.5C 26.4387,25.0219 25.772,25.3552 25,25.5C 23.1341,22.931 21.6341,20.0976 20.5,17C 18.0912,15.2932 15.4245,14.4598 12.5,14.5C 12.5,13.1667 12.5,11.8333 12.5,10.5C 19.4994,10.1673 23.166,6.50063 23.5,-0.5 Z M 24.5,9.5 C 29.1655,10.8224 29.4989,12.8224 25.5,15.5C 22.025,13.9158 21.6917,11.9158 24.5,9.5 Z"/></g>
<g><path style="opacity:0.94" fill="#fefffe" d="M 62.5,-0.5 C 66.1667,-0.5 69.8333,-0.5 73.5,-0.5C 96.059,4.39229 110.059,18.059 115.5,40.5C 115.5,46.1667 115.5,51.8333 115.5,57.5C 113.917,64.0627 111.417,70.396 108,76.5C 101.446,84.3876 94.2791,91.5542 86.5,98C 88.4727,98.4955 90.4727,98.6621 92.5,98.5C 92.5,100.167 92.5,101.833 92.5,103.5C 89.7531,103.187 87.0865,103.52 84.5,104.5C 83.4775,106.895 84.4775,107.895 87.5,107.5C 87.5,109.167 87.5,110.833 87.5,112.5C 86.1667,112.5 84.8333,112.5 83.5,112.5C 83.6633,114.857 83.4966,117.19 83,119.5C 81.7949,120.071 80.6283,120.738 79.5,121.5C 78.0224,127.163 74.6891,131.163 69.5,133.5C 67.1667,133.5 64.8333,133.5 62.5,133.5C 56.7772,131.102 53.7772,126.769 53.5,120.5C 51.8561,120.714 50.3561,120.38 49,119.5C 48.5034,117.19 48.3367,114.857 48.5,112.5C 47.1667,112.5 45.8333,112.5 44.5,112.5C 44.5,110.833 44.5,109.167 44.5,107.5C 45.8333,107.5 47.1667,107.5 48.5,107.5C 48.67,106.178 48.3366,105.011 47.5,104C 45.1902,103.503 42.8568,103.337 40.5,103.5C 40.5,101.833 40.5,100.167 40.5,98.5C 42.1992,98.6602 43.8659,98.4935 45.5,98C 44.8742,97.2496 44.3742,96.4162 44,95.5C 38.6667,90.8333 33.3333,86.1667 28,81.5C 19.898,71.6253 16.0647,60.292 16.5,47.5C 18.1667,47.5 19.8333,47.5 21.5,47.5C 21.7806,66.2907 29.9473,80.6241 46,90.5C 47.5,92.8333 49,95.1667 50.5,97.5C 60.8333,98.8333 71.1667,98.8333 81.5,97.5C 86.1058,90.6055 91.9391,84.9388 99,80.5C 114.203,61.5934 115.203,41.9267 102,21.5C 91.6409,9.4048 78.4743,3.4048 62.5,3.5C 62.5,2.16667 62.5,0.833333 62.5,-0.5 Z M 52.5,103.5 C 61.5,103.5 70.5,103.5 79.5,103.5C 79.5,104.833 79.5,106.167 79.5,107.5C 70.8078,107.831 62.1411,107.498 53.5,106.5C 52.8728,105.583 52.5394,104.583 52.5,103.5 Z M 53.5,112.5 C 61.8333,112.5 70.1667,112.5 78.5,112.5C 78.5,113.833 78.5,115.167 78.5,116.5C 70.1667,116.5 61.8333,116.5 53.5,116.5C 53.5,115.167 53.5,113.833 53.5,112.5 Z M 57.5,120.5 C 63.1667,120.5 68.8333,120.5 74.5,120.5C 73.9193,125.582 71.086,128.582 66,129.5C 60.9522,128.618 58.1189,125.618 57.5,120.5 Z"/></g>
<g><path style="opacity:0.949" fill="#fefffe" d="M 51.5,10.5 C 56.2225,9.55311 60.0558,10.8864 63,14.5C 63.6667,37.5 63.6667,60.5 63,83.5C 58.1111,89.7822 52.9444,89.9489 47.5,84C 40.9296,84.4299 36.9296,81.4299 35.5,75C 35.6448,74.228 35.9781,73.5613 36.5,73C 30.3787,69.6344 28.3787,64.6344 30.5,58C 23.8611,52.0809 23.8611,46.2475 30.5,40.5C 28.3047,33.8827 30.3047,28.8827 36.5,25.5C 35.1741,20.6677 36.8407,17.1677 41.5,15C 45.6965,15.037 49.0299,13.537 51.5,10.5 Z M 53.5,14.5 C 55.5824,14.472 57.4157,15.1387 59,16.5C 59.6667,38.1667 59.6667,59.8333 59,81.5C 56.0995,84.3178 53.5995,83.9845 51.5,80.5C 52.1667,79.1667 52.8333,77.8333 53.5,76.5C 52.6667,76.1667 51.8333,75.8333 51,75.5C 48.997,76.9832 46.8303,78.3166 44.5,79.5C 39.4202,76.7638 39.2535,73.7638 44,70.5C 44.49,69.2068 44.6567,67.8734 44.5,66.5C 37.3193,69.8304 34.1527,67.497 35,59.5C 38.0568,54.8966 41.5568,54.5633 45.5,58.5C 46.2458,59.7362 46.5792,61.0695 46.5,62.5C 48.1667,62.5 49.8333,62.5 51.5,62.5C 49.3188,52.0759 43.3188,49.0759 33.5,53.5C 28.289,50.6127 28.289,47.946 33.5,45.5C 42.3728,49.2113 48.3728,46.5447 51.5,37.5C 49.9547,36.5481 48.288,36.2148 46.5,36.5C 45.4907,41.3464 42.4907,43.1798 37.5,42C 33.9676,38.6101 33.6342,34.9434 36.5,31C 39.1572,30.8253 41.8239,30.9919 44.5,31.5C 44.627,28.755 43.4603,26.755 41,25.5C 40.3357,20.5036 42.5023,18.6703 47.5,20C 48.3366,21.0113 48.67,22.1779 48.5,23.5C 50.1667,23.5 51.8333,23.5 53.5,23.5C 53.4139,21.323 52.7472,19.323 51.5,17.5C 52.1925,16.4822 52.8592,15.4822 53.5,14.5 Z"/></g>
<g><path style="opacity:0.948" fill="#fefffe" d="M 72.5,10.5 C 77.1405,9.73598 81.1405,10.9026 84.5,14C 92.912,14.0647 96.5787,18.0647 95.5,26C 102.252,29.102 104.252,34.102 101.5,41C 108.416,45.4677 109.083,50.6344 103.5,56.5C 102.676,59.7848 102.176,63.1182 102,66.5C 101.027,68.64 99.5267,70.3067 97.5,71.5C 97.189,79.9795 92.8557,84.1462 84.5,84C 79.0969,89.97 73.9302,89.8033 69,83.5C 68.3333,60.5 68.3333,37.5 69,14.5C 70.3756,13.2949 71.5423,11.9616 72.5,10.5 Z M 75.5,14.5 C 80.9151,15.3441 81.9151,18.0107 78.5,22.5C 81.5465,23.85 83.8798,23.0167 85.5,20C 90.6667,18.5 92.5,20.3333 91,25.5C 88.5397,26.755 87.373,28.755 87.5,31.5C 96.6299,29.1265 99.6299,32.2932 96.5,41C 91.5516,43.6485 87.8849,42.4818 85.5,37.5C 84.3112,36.5713 82.9778,36.238 81.5,36.5C 83.3765,46.4029 89.0431,49.4029 98.5,45.5C 103.814,48.1077 103.814,50.7744 98.5,53.5C 89.0138,49.0772 83.0138,51.9105 80.5,62C 82.2588,62.7975 83.9255,62.6309 85.5,61.5C 89.368,54.3677 93.5347,54.0344 98,60.5C 98.3382,64.1534 96.8382,66.8201 93.5,68.5C 91.677,67.2528 89.677,66.5861 87.5,66.5C 86.9232,69.5497 88.0899,71.5497 91,72.5C 92.316,76.1279 91.1493,78.4612 87.5,79.5C 85.5042,77.7676 83.3375,76.4342 81,75.5C 80.1667,75.6667 79.3333,75.8333 78.5,76C 81.779,81.0461 80.4457,83.3794 74.5,83C 73.8742,82.2496 73.3742,81.4162 73,80.5C 72.3333,59.5 72.3333,38.5 73,17.5C 73.6979,16.3094 74.5313,15.3094 75.5,14.5 Z"/></g>
<g><path style="opacity:0.926" fill="#fefffe" d="M -0.5,35.5 C -0.5,34.5 -0.5,33.5 -0.5,32.5C 6.42718,31.4067 10.5939,27.4067 12,20.5C 14.1042,23.167 15.7709,26.167 17,29.5C 19.2658,30.9563 21.7658,31.7896 24.5,32C 25.8333,33.3333 25.8333,34.6667 24.5,36C 20.7677,35.812 17.9344,37.312 16,40.5C 15.273,43.1547 14.1064,45.4881 12.5,47.5C 10.5714,44.3184 8.57138,41.1518 6.5,38C 4.19243,37.0093 1.8591,36.176 -0.5,35.5 Z M 11.5,31.5 C 13.1958,31.6854 14.5291,32.5187 15.5,34C 14.3333,35.1667 13.1667,36.3333 12,37.5C 11.5348,36.0692 10.7014,34.9025 9.5,34C 10.3805,33.2917 11.0472,32.4584 11.5,31.5 Z"/></g>
</svg>
