<?xml version="1.0" encoding="UTF-8"?>
<!DOCTYPE svg PUBLIC "-//W3C//DTD SVG 1.1//EN" "http://www.w3.org/Graphics/SVG/1.1/DTD/svg11.dtd">
<svg xmlns="http://www.w3.org/2000/svg" version="1.1" width="141px" height="132px" style="shape-rendering:geometricPrecision; text-rendering:geometricPrecision; image-rendering:optimizeQuality; fill-rule:evenodd; clip-rule:evenodd" xmlns:xlink="http://www.w3.org/1999/xlink">
<g><path style="opacity:0.93" fill="#fefffe" d="M 54.5,-0.5 C 55.5,-0.5 56.5,-0.5 57.5,-0.5C 58.3007,1.04181 58.634,2.70848 58.5,4.5C 42.8492,8.74667 30.6826,17.7467 22,31.5C 19.9461,34.9409 18.4461,38.6076 17.5,42.5C 15.5165,42.6168 13.8498,41.9501 12.5,40.5C 20.5871,20.7459 34.5871,7.07922 54.5,-0.5 Z"/></g>
<g><path style="opacity:0.916" fill="#fefffe" d="M 68.5,6.5 C 100.48,5.99872 120.98,20.9987 130,51.5C 132.994,67.5044 129.994,82.171 121,95.5C 119.926,94.3816 118.76,93.3816 117.5,92.5C 131.947,65.0516 127.614,41.2183 104.5,21C 79.71,6.30708 56.8767,8.80708 36,28.5C 23.1935,44.2034 20.0268,61.7034 26.5,81C 24.7017,82.5053 22.8684,82.6719 21,81.5C 13.9112,55.5247 20.7445,34.0247 41.5,17C 49.7075,11.2208 58.7075,7.72077 68.5,6.5 Z M 57.5,44.5 C 60.7935,44.259 63.7935,45.0924 66.5,47C 68.7583,49.7671 71.4249,51.9338 74.5,53.5C 77.9114,51.5969 80.9114,49.0969 83.5,46C 93.8434,43.0114 98.3434,46.8447 97,57.5C 89.6943,65.1402 82.361,72.8069 75,80.5C 67.3604,72.8604 59.6937,65.1937 52,57.5C 50.1044,51.4345 51.9378,47.1012 57.5,44.5 Z"/></g>
<g><path style="opacity:0.91" fill="#fefffe" d="M 86.5,17.5 C 105.55,23.0513 117.216,35.5513 121.5,55C 119.603,56.1097 117.77,56.2764 116,55.5C 112,39.331 102.167,28.331 86.5,22.5C 85.5661,20.9052 85.5661,19.2385 86.5,17.5 Z"/></g>
<g><path style="opacity:0.932" fill="#fefffe" d="M 56.5,39.5 C 59.1873,39.3359 61.854,39.5026 64.5,40C 68.2784,42.112 71.7784,44.612 75,47.5C 84.5469,36.5746 93.5469,36.9079 102,48.5C 102.791,52.9255 102.457,57.2589 101,61.5C 92.8333,69.6667 84.6667,77.8333 76.5,86C 75.1667,86.6667 73.8333,86.6667 72.5,86C 63.265,77.4348 54.765,68.2681 47,58.5C 46.3333,55.1667 46.3333,51.8333 47,48.5C 49.4057,44.5915 52.5724,41.5915 56.5,39.5 Z M 57.5,44.5 C 51.9378,47.1012 50.1044,51.4345 52,57.5C 59.6937,65.1937 67.3604,72.8604 75,80.5C 82.361,72.8069 89.6943,65.1402 97,57.5C 98.3434,46.8447 93.8434,43.0114 83.5,46C 80.9114,49.0969 77.9114,51.5969 74.5,53.5C 71.4249,51.9338 68.7583,49.7671 66.5,47C 63.7935,45.0924 60.7935,44.259 57.5,44.5 Z"/></g>
<g><path style="opacity:0.855" fill="#fefffe" d="M 10.5,45.5 C 12.0418,46.3007 13.7085,46.634 15.5,46.5C 15.5123,50.4459 13.5123,52.1126 9.5,51.5C 9.83333,49.5 10.1667,47.5 10.5,45.5 Z"/></g>
<g><path style="opacity:0.939" fill="#fefffe" d="M 140.5,54.5 C 140.5,60.5 140.5,66.5 140.5,72.5C 139.236,77.9089 137.403,83.2422 135,88.5C 133.581,87.5399 132.081,86.7065 130.5,86C 135.358,74.9472 136.691,63.4472 134.5,51.5C 136.144,51.7135 137.644,51.3802 139,50.5C 139.21,52.0581 139.71,53.3915 140.5,54.5 Z"/></g>
<g><path style="opacity:0.976" fill="#fefffe" d="M 116.5,60.5 C 118.167,60.5 119.833,60.5 121.5,60.5C 121.5,62.1667 121.5,63.8333 121.5,65.5C 119.833,65.5 118.167,65.5 116.5,65.5C 116.5,63.8333 116.5,62.1667 116.5,60.5 Z"/></g>
<g><path style="opacity:0.965" fill="#fefffe" d="M -0.5,86.5 C 10.1719,86.3335 20.8385,86.5002 31.5,87C 31.9574,87.414 32.2907,87.914 32.5,88.5C 43.3839,88.2421 53.7172,90.4088 63.5,95C 71.8333,95.3333 80.1667,95.6667 88.5,96C 92.1027,97.771 94.4361,100.604 95.5,104.5C 101.164,101.751 106.998,99.4181 113,97.5C 120.925,99.2589 123.425,103.926 120.5,111.5C 119.5,112.333 118.5,113.167 117.5,114C 102.586,120.354 87.5864,126.188 72.5,131.5C 67.8333,131.5 63.1667,131.5 58.5,131.5C 50.1294,128.591 41.7961,125.258 33.5,121.5C 32.7132,122.242 32.0465,123.075 31.5,124C 20.8385,124.5 10.1719,124.667 -0.5,124.5C -0.5,122.833 -0.5,121.167 -0.5,119.5C 8.83333,119.5 18.1667,119.5 27.5,119.5C 27.5,110.167 27.5,100.833 27.5,91.5C 18.1667,91.5 8.83333,91.5 -0.5,91.5C -0.5,89.8333 -0.5,88.1667 -0.5,86.5 Z M 32.5,93.5 C 43.0952,93.1848 53.0952,95.3515 62.5,100C 71.2684,100.058 79.935,100.725 88.5,102C 89.8333,103.667 89.8333,105.333 88.5,107C 78.5056,107.5 68.5056,107.666 58.5,107.5C 58.5,109.167 58.5,110.833 58.5,112.5C 69.505,112.667 80.505,112.5 91.5,112C 98.6079,108.696 105.775,105.529 113,102.5C 116.072,103.447 117.072,105.447 116,108.5C 114.421,110.041 112.587,111.208 110.5,112C 97.5651,116.867 84.5651,121.534 71.5,126C 67.1667,126.667 62.8333,126.667 58.5,126C 49.7596,122.921 41.093,119.754 32.5,116.5C 32.5,108.833 32.5,101.167 32.5,93.5 Z"/></g>
<g><path style="opacity:0.801" fill="#fefffe" d="M 17.5,110.5 C 19.1667,110.5 20.8333,110.5 22.5,110.5C 22.5,112.167 22.5,113.833 22.5,115.5C 20.8333,115.5 19.1667,115.5 17.5,115.5C 17.5,113.833 17.5,112.167 17.5,110.5 Z"/></g>
</svg>
