<?xml version="1.0" encoding="UTF-8"?>
<!DOCTYPE svg PUBLIC "-//W3C//DTD SVG 1.1//EN" "http://www.w3.org/Graphics/SVG/1.1/DTD/svg11.dtd">
<svg xmlns="http://www.w3.org/2000/svg" version="1.1" width="150px" height="143px" style="shape-rendering:geometricPrecision; text-rendering:geometricPrecision; image-rendering:optimizeQuality; fill-rule:evenodd; clip-rule:evenodd" xmlns:xlink="http://www.w3.org/1999/xlink">
<g><path style="opacity:0.917" fill="#fefffe" d="M 9.5,-0.5 C 19.1667,-0.5 28.8333,-0.5 38.5,-0.5C 42.2547,1.6754 43.9214,5.00873 43.5,9.5C 43.3333,11.1667 43.1667,12.8333 43,14.5C 32.2969,23.8815 31.7969,33.7148 41.5,44C 51.5643,48.8801 59.731,46.7134 66,37.5C 68.8922,28.1805 66.5589,20.5138 59,14.5C 58.1327,10.0442 58.4661,5.71088 60,1.5C 61.3024,0.915201 62.469,0.248534 63.5,-0.5C 73.1667,-0.5 82.8333,-0.5 92.5,-0.5C 96.7851,1.62186 99.9518,4.9552 102,9.5C 102.18,19.4105 102.68,29.2438 103.5,39C 105.365,40.3014 107.365,40.6347 109.5,40C 118.908,29.9164 129.575,28.2498 141.5,35C 145.276,38.5789 147.943,42.7456 149.5,47.5C 149.5,50.5 149.5,53.5 149.5,56.5C 148.33,58.6502 147.33,60.9836 146.5,63.5C 144.994,64.7472 143.494,64.7472 142,63.5C 142.032,61.4021 142.699,59.4021 144,57.5C 144.793,38.9664 136.293,32.4664 118.5,38C 117.167,40.6667 115.167,42.6667 112.5,44C 108.833,44.6667 105.167,44.6667 101.5,44C 99.9512,42.786 98.7845,41.286 98,39.5C 97.6667,29.5 97.3333,19.5 97,9.5C 95.5,8 94,6.5 92.5,5C 82.8161,4.16785 73.1495,4.33452 63.5,5.5C 62.4798,7.43249 62.3131,9.43249 63,11.5C 73.5571,21.3914 74.8904,32.3914 67,44.5C 57.8216,52.7415 47.9883,53.5748 37.5,47C 26.5348,34.7325 27.0348,22.8992 39,11.5C 39.8959,8.97498 39.3959,6.80832 37.5,5C 28.1667,4.33333 18.8333,4.33333 9.5,5C 7.33333,5.83333 5.83333,7.33333 5,9.5C 4.66667,13.1667 4.33333,16.8333 4,20.5C 2.50978,21.7279 1.00978,21.7279 -0.5,20.5C -0.5,16.8333 -0.5,13.1667 -0.5,9.5C 1.88606,5.11383 5.21939,1.7805 9.5,-0.5 Z"/></g>
<g><path style="opacity:0.985" fill="#fefffe" d="M -0.5,27.5 C 1.14387,27.2865 2.64387,27.6198 4,28.5C 4.33333,50.5 4.66667,72.5 5,94.5C 6.2506,97.3807 8.41727,99.214 11.5,100C 14.8168,100.498 18.1501,100.665 21.5,100.5C 21.67,101.822 21.3366,102.989 20.5,104C 10.6374,106.73 3.63739,103.564 -0.5,94.5C -0.5,72.1667 -0.5,49.8333 -0.5,27.5 Z"/></g>
<g><path style="opacity:0.926" fill="#fefffe" d="M 81.5,142.5 C 76.8333,142.5 72.1667,142.5 67.5,142.5C 66.3999,138.269 65.0666,134.102 63.5,130C 59.256,131.021 55.256,132.854 51.5,135.5C 47.6507,132.597 44.3174,129.263 41.5,125.5C 43.2291,121.71 45.2291,118.044 47.5,114.5C 44.0048,111.942 40.0048,110.442 35.5,110C 34.5939,108.301 34.2606,106.467 34.5,104.5C 32.1667,104.5 29.8333,104.5 27.5,104.5C 27.5,103.167 27.5,101.833 27.5,100.5C 29.8333,100.5 32.1667,100.5 34.5,100.5C 34.5,98.5 34.5,96.5 34.5,94.5C 38.9489,94.6271 43.1156,93.6271 47,91.5C 45.7615,87.2011 43.9282,83.0345 41.5,79C 44.1543,75.679 47.1543,72.679 50.5,70C 51.5,69.3333 52.5,69.3333 53.5,70C 56.5,71.8333 59.5,73.6667 62.5,75.5C 63.086,75.2907 63.586,74.9574 64,74.5C 65.0948,70.6151 66.2614,66.7817 67.5,63C 72.1667,62.3333 76.8333,62.3333 81.5,63C 82.7386,66.7817 83.9052,70.6151 85,74.5C 85.414,74.9574 85.914,75.2907 86.5,75.5C 89.8333,73.5 93.1667,71.5 96.5,69.5C 98.1828,60.4839 103.516,57.3172 112.5,60C 118.89,67.9616 126.89,70.1282 136.5,66.5C 139.255,68.7612 138.922,70.5945 135.5,72C 126.15,74.8291 118.15,72.6624 111.5,65.5C 102.757,62.7447 100.09,65.7447 103.5,74.5C 105.596,75.5919 106.929,77.2586 107.5,79.5C 105.539,83.1435 103.539,86.8101 101.5,90.5C 105.25,93.4146 109.583,94.7479 114.5,94.5C 114.666,99.5111 114.499,104.511 114,109.5C 110.138,110.453 106.305,111.62 102.5,113C 102.043,113.414 101.709,113.914 101.5,114.5C 103.333,117.5 105.167,120.5 107,123.5C 107.781,124.944 107.614,126.277 106.5,127.5C 103.526,130.138 100.526,132.805 97.5,135.5C 93.744,132.854 89.744,131.021 85.5,130C 83.9334,134.102 82.6001,138.269 81.5,142.5 Z M 70.5,66.5 C 73.1667,66.5 75.8333,66.5 78.5,66.5C 79.4114,81.3728 85.5781,84.0395 97,74.5C 98.8333,76.3333 100.667,78.1667 102.5,80C 93.0614,90.1032 95.0614,96.2698 108.5,98.5C 109.48,101.086 109.813,103.753 109.5,106.5C 95.3112,107.886 92.9778,114.052 102.5,125C 100.333,126.5 98.5,128.333 97,130.5C 86.1,120.963 79.9333,123.296 78.5,137.5C 75.8333,137.5 73.1667,137.5 70.5,137.5C 69.0667,123.296 62.9,120.963 52,130.5C 50.5,128.333 48.6667,126.5 46.5,125C 56.0418,114.256 53.7085,108.09 39.5,106.5C 39.1866,103.753 39.52,101.086 40.5,98.5C 53.9386,96.2698 55.9386,90.1032 46.5,80C 48.3333,78.1667 50.1667,76.3333 52,74.5C 63.4219,84.0395 69.5886,81.3728 70.5,66.5 Z M 69.5,94.5 C 75.0696,93.4541 79.403,95.1207 82.5,99.5C 77.1667,100.833 71.8333,100.833 66.5,99.5C 67.9524,98.0603 68.9524,96.3936 69.5,94.5 Z M 66.5,104.5 C 71.8746,104.172 77.2079,104.505 82.5,105.5C 79.7868,110.188 75.7868,111.688 70.5,110C 68.5359,108.549 67.2026,106.716 66.5,104.5 Z"/></g>
<g><path style="opacity:0.947" fill="#fefffe" d="M 69.5,89.5 C 82.1565,88.3244 87.9899,93.9911 87,106.5C 82.4365,115.68 75.6032,117.847 66.5,113C 59.0719,104.011 60.0719,96.1776 69.5,89.5 Z M 69.5,94.5 C 68.9524,96.3936 67.9524,98.0603 66.5,99.5C 71.8333,100.833 77.1667,100.833 82.5,99.5C 79.403,95.1207 75.0696,93.4541 69.5,94.5 Z M 66.5,104.5 C 67.2026,106.716 68.5359,108.549 70.5,110C 75.7868,111.688 79.7868,110.188 82.5,105.5C 77.2079,104.505 71.8746,104.172 66.5,104.5 Z"/></g>
</svg>
