<?xml version="1.0" encoding="UTF-8"?>
<!DOCTYPE svg PUBLIC "-//W3C//DTD SVG 1.1//EN" "http://www.w3.org/Graphics/SVG/1.1/DTD/svg11.dtd">
<svg xmlns="http://www.w3.org/2000/svg" version="1.1" width="706px" height="138px" style="shape-rendering:geometricPrecision; text-rendering:geometricPrecision; image-rendering:optimizeQuality; fill-rule:evenodd; clip-rule:evenodd" xmlns:xlink="http://www.w3.org/1999/xlink">
<g><path style="opacity:0.994" fill="#936a2b" d="M 55.5,-0.5 C 253.5,-0.5 451.5,-0.5 649.5,-0.5C 657.293,1.32145 664.627,4.32145 671.5,8.5C 668.615,8.1936 665.948,8.52693 663.5,9.5C 658.37,7.38322 653.036,5.88322 647.5,5C 450.5,4.33333 253.5,4.33333 56.5,5C 52.0109,5.70503 47.6776,6.8717 43.5,8.5C 43.3893,7.88258 43.056,7.38258 42.5,7C 40.6194,7.09599 38.9527,6.92932 37.5,6.5C 43.2074,3.37601 49.2074,1.04268 55.5,-0.5 Z"/></g>
<g><path style="opacity:1" fill="#000000" d="M 663.5,9.5 C 679.337,17.3346 690.67,29.3346 697.5,45.5C 698.134,49.3727 699.134,53.0394 700.5,56.5C 700.5,64.1667 700.5,71.8333 700.5,79.5C 694.13,107.704 676.797,125.204 648.5,132C 452.5,132.5 256.5,132.667 60.5,132.5C 39.534,129.693 23.534,119.36 12.5,101.5C 5.55738,88.7192 2.89071,75.0525 4.5,60.5C 4.5,59.1667 4.5,57.8333 4.5,56.5C 5.86602,53.0394 6.86602,49.3727 7.5,45.5C 14.7204,28.6117 26.7204,16.2784 43.5,8.5C 47.6776,6.8717 52.0109,5.70503 56.5,5C 253.5,4.33333 450.5,4.33333 647.5,5C 653.036,5.88322 658.37,7.38322 663.5,9.5 Z"/></g>
<g><path style="opacity:0.894" fill="#be9446" d="M 37.5,6.5 C 38.9527,6.92932 40.6194,7.09599 42.5,7C 43.056,7.38258 43.3893,7.88258 43.5,8.5C 26.7204,16.2784 14.7204,28.6117 7.5,45.5C 6.81658,43.8235 5.48324,43.1568 3.5,43.5C 9.98833,26.6798 21.3217,14.3464 37.5,6.5 Z"/></g>
<g><path style="opacity:0.912" fill="#c09647" d="M 663.5,9.5 C 665.948,8.52693 668.615,8.1936 671.5,8.5C 685.787,16.4564 695.787,28.1231 701.5,43.5C 699.517,43.1568 698.183,43.8235 697.5,45.5C 690.67,29.3346 679.337,17.3346 663.5,9.5 Z"/></g>
<g><path style="opacity:1" fill="#f7d650" d="M 412.5,40.5 C 415.5,40.5 418.5,40.5 421.5,40.5C 420.229,57.8177 420.229,75.1511 421.5,92.5C 417.167,92.5 412.833,92.5 408.5,92.5C 408.649,91.448 408.483,90.448 408,89.5C 399.118,95.5451 391.118,94.5451 384,86.5C 378.078,75.4113 379.912,65.9113 389.5,58C 395.37,55.5709 400.87,56.0709 406,59.5C 406.499,53.5092 406.666,47.5092 406.5,41.5C 408.735,41.7947 410.735,41.4614 412.5,40.5 Z"/></g>
<g><path style="opacity:1" fill="#f9d850" d="M 88.5,41.5 C 97.1731,41.3336 105.84,41.5002 114.5,42C 127.816,44.9464 134.483,53.2798 134.5,67C 134.346,79.1431 128.679,87.4765 117.5,92C 107.172,92.4998 96.8387,92.6665 86.5,92.5C 86.9072,81.1694 87.2406,69.836 87.5,58.5C 87.2143,52.7414 87.5476,47.0748 88.5,41.5 Z"/></g>
<g><path style="opacity:1" fill="#f2d24e" d="M 277.5,41.5 C 282.5,41.5 287.5,41.5 292.5,41.5C 292.5,58.5 292.5,75.5 292.5,92.5C 287.833,93.8333 283.167,93.8333 278.5,92.5C 278.776,75.472 278.443,58.472 277.5,41.5 Z"/></g>
<g><path style="opacity:1" fill="#f4d44f" d="M 604.5,41.5 C 609.167,41.5 613.833,41.5 618.5,41.5C 619.427,52.8564 617.927,63.8564 614,74.5C 612,75.8333 610,75.8333 608,74.5C 606.601,71.6366 605.601,68.6366 605,65.5C 604.5,57.5069 604.334,49.5069 604.5,41.5 Z"/></g>
<g><path style="opacity:1" fill="#7f6d25" d="M 88.5,41.5 C 87.5476,47.0748 87.2143,52.7414 87.5,58.5C 86.8356,55.8541 86.5022,53.0208 86.5,50C 86.5191,46.7485 87.1858,43.9151 88.5,41.5 Z"/></g>
<g><path style="opacity:1" fill="#d0b762" d="M 3.5,43.5 C 5.48324,43.1568 6.81658,43.8235 7.5,45.5C 6.86602,49.3727 5.86602,53.0394 4.5,56.5C 4.16266,53.6643 2.82932,52.9976 0.5,54.5C 0.894374,50.6528 1.89437,46.9861 3.5,43.5 Z"/></g>
<g><path style="opacity:1" fill="#d0b762" d="M 701.5,43.5 C 703.106,46.9861 704.106,50.6528 704.5,54.5C 702.517,54.1568 701.183,54.8235 700.5,56.5C 699.134,53.0394 698.134,49.3727 697.5,45.5C 698.183,43.8235 699.517,43.1568 701.5,43.5 Z"/></g>
<g><path style="opacity:1" fill="#020100" d="M 103.5,52.5 C 117.37,52.8719 122.537,59.8719 119,73.5C 116.77,79.0395 112.604,81.7062 106.5,81.5C 105.106,81.3793 103.772,81.046 102.5,80.5C 100.907,70.9258 101.24,61.5925 103.5,52.5 Z"/></g>
<g><path style="opacity:1" fill="#f6d54f" d="M 151.5,56.5 C 171.64,55.8055 179.14,65.1388 174,84.5C 166.698,93.89 157.531,96.0567 146.5,91C 137.689,83.0743 136.189,73.9076 142,63.5C 144.529,60.1151 147.696,57.7818 151.5,56.5 Z"/></g>
<g><path style="opacity:1" fill="#f2d24e" d="M 244.5,56.5 C 246.167,56.5 247.833,56.5 249.5,56.5C 249.312,58.1033 249.812,59.4366 251,60.5C 257.484,55.6663 264.151,55.333 271,59.5C 271.667,60.8333 272.333,62.1667 273,63.5C 273.5,73.1609 273.666,82.8276 273.5,92.5C 268.833,92.5 264.167,92.5 259.5,92.5C 259.666,84.8261 259.5,77.1594 259,69.5C 256.146,66.9836 253.479,67.3169 251,70.5C 250.5,77.8258 250.334,85.1591 250.5,92.5C 245.833,92.5 241.167,92.5 236.5,92.5C 236.743,81.1356 236.41,69.8023 235.5,58.5C 238.689,58.1417 241.689,57.475 244.5,56.5 Z"/></g>
<g><path style="opacity:1" fill="#f6d54f" d="M 310.5,56.5 C 330.64,55.8055 338.14,65.1388 333,84.5C 325.698,93.89 316.531,96.0567 305.5,91C 296.689,83.0743 295.189,73.9076 301,63.5C 303.529,60.1151 306.696,57.7818 310.5,56.5 Z"/></g>
<g><path style="opacity:1" fill="#f6d54f" d="M 348.5,56.5 C 352.182,56.3347 355.848,56.5014 359.5,57C 361.286,57.7845 362.786,58.9512 364,60.5C 364.49,59.2068 364.657,57.8734 364.5,56.5C 368.516,56.2871 372.35,56.9538 376,58.5C 375.43,69.8215 375.597,81.1548 376.5,92.5C 372.176,92.9272 367.842,93.2605 363.5,93.5C 363.66,91.8008 363.494,90.1341 363,88.5C 352.49,96.5386 344.157,94.5386 338,82.5C 334.618,70.9449 338.118,62.2782 348.5,56.5 Z"/></g>
<g><path style="opacity:1" fill="#f2d24e" d="M 453.5,56.5 C 455.167,56.5 456.833,56.5 458.5,56.5C 458.312,58.1033 458.812,59.4366 460,60.5C 466.484,55.6663 473.151,55.333 480,59.5C 480.667,60.8333 481.333,62.1667 482,63.5C 482.5,73.1609 482.666,82.8276 482.5,92.5C 477.833,92.5 473.167,92.5 468.5,92.5C 468.666,84.8261 468.5,77.1594 468,69.5C 465.146,66.9836 462.479,67.3169 460,70.5C 459.5,77.8258 459.334,85.1591 459.5,92.5C 454.833,92.5 450.167,92.5 445.5,92.5C 445.743,81.1356 445.41,69.8023 444.5,58.5C 447.689,58.1417 450.689,57.475 453.5,56.5 Z"/></g>
<g><path style="opacity:1" fill="#f6d54f" d="M 499.5,56.5 C 519.64,55.8055 527.14,65.1388 522,84.5C 514.698,93.89 505.531,96.0567 494.5,91C 485.689,83.0743 484.189,73.9076 490,63.5C 492.529,60.1151 495.696,57.7818 499.5,56.5 Z"/></g>
<g><path style="opacity:1" fill="#f6d54f" d="M 177.5,57.5 C 181.833,57.5 186.167,57.5 190.5,57.5C 190.334,62.8437 190.501,68.1771 191,73.5C 193.447,81.4348 195.781,81.4348 198,73.5C 198.499,68.1771 198.666,62.8437 198.5,57.5C 202.833,57.5 207.167,57.5 211.5,57.5C 211.334,62.8437 211.501,68.1771 212,73.5C 214.467,82.4886 216.8,82.1552 219,72.5C 219.499,67.5111 219.666,62.5111 219.5,57.5C 223.833,57.5 228.167,57.5 232.5,57.5C 234.042,70.9187 230.042,82.4187 220.5,92C 217.5,92.6667 214.5,92.6667 211.5,92C 208.556,89.278 206.223,86.1113 204.5,82.5C 202.625,85.7511 200.625,88.9177 198.5,92C 195.167,92.6667 191.833,92.6667 188.5,92C 184.623,86.4153 181.123,80.5819 178,74.5C 177.501,68.8431 177.334,63.1764 177.5,57.5 Z"/></g>
<g><path style="opacity:1" fill="#f6d54f" d="M 525.5,57.5 C 529.833,57.5 534.167,57.5 538.5,57.5C 538.334,62.8437 538.501,68.1771 539,73.5C 541.447,81.4348 543.781,81.4348 546,73.5C 546.499,68.1771 546.666,62.8437 546.5,57.5C 550.833,57.5 555.167,57.5 559.5,57.5C 559.334,62.8437 559.501,68.1771 560,73.5C 562.467,82.4886 564.8,82.1552 567,72.5C 567.499,67.5111 567.666,62.5111 567.5,57.5C 571.833,57.5 576.167,57.5 580.5,57.5C 582.042,70.9187 578.042,82.4187 568.5,92C 565.5,92.6667 562.5,92.6667 559.5,92C 556.556,89.278 554.223,86.1113 552.5,82.5C 550.625,85.7511 548.625,88.9177 546.5,92C 543.167,92.6667 539.833,92.6667 536.5,92C 532.623,86.4153 529.123,80.5819 526,74.5C 525.501,68.8431 525.334,63.1764 525.5,57.5 Z"/></g>
<g><path style="opacity:0.993" fill="#f1e581" d="M 4.5,56.5 C 4.5,57.8333 4.5,59.1667 4.5,60.5C 3.50984,66.6446 3.1765,72.9779 3.5,79.5C 2.16667,79.5 0.833333,79.5 -0.5,79.5C -0.5,71.5 -0.5,63.5 -0.5,55.5C 0.166667,55.5 0.5,55.1667 0.5,54.5C 2.82932,52.9976 4.16266,53.6643 4.5,56.5 Z"/></g>
<g><path style="opacity:0.994" fill="#e4d87a" d="M 704.5,54.5 C 704.5,55.1667 704.833,55.5 705.5,55.5C 705.5,64.1667 705.5,72.8333 705.5,81.5C 704.833,81.5 704.5,81.8333 704.5,82.5C 703.167,82.5 701.833,82.5 700.5,82.5C 700.5,81.5 700.5,80.5 700.5,79.5C 700.5,71.8333 700.5,64.1667 700.5,56.5C 701.183,54.8235 702.517,54.1568 704.5,54.5 Z"/></g>
<g><path style="opacity:1" fill="#070501" d="M 155.5,67.5 C 163.406,68.7517 165.572,73.0851 162,80.5C 155.821,83.8269 152.321,81.9935 151.5,75C 151.43,71.6335 152.763,69.1335 155.5,67.5 Z"/></g>
<g><path style="opacity:1" fill="#070501" d="M 314.5,67.5 C 322.406,68.7517 324.572,73.0851 321,80.5C 314.821,83.8269 311.321,81.9935 310.5,75C 310.43,71.6335 311.763,69.1335 314.5,67.5 Z"/></g>
<g><path style="opacity:1" fill="#040300" d="M 354.5,67.5 C 362.339,68.1804 364.839,72.1804 362,79.5C 355.152,84.1637 350.985,82.3304 349.5,74C 350.242,71.0946 351.909,68.928 354.5,67.5 Z"/></g>
<g><path style="opacity:1" fill="#080602" d="M 398.5,67.5 C 406.579,68.0711 409.079,72.0711 406,79.5C 399.507,84.3413 395.674,82.6746 394.5,74.5C 395.01,71.6657 396.344,69.3323 398.5,67.5 Z"/></g>
<g><path style="opacity:1" fill="#070501" d="M 503.5,67.5 C 511.406,68.7517 513.572,73.0851 510,80.5C 503.821,83.8269 500.321,81.9935 499.5,75C 499.43,71.6335 500.763,69.1335 503.5,67.5 Z"/></g>
<g><path style="opacity:1" fill="#f3d24e" d="M 607.5,78.5 C 615.656,77.8211 619.156,81.4878 618,89.5C 613.491,94.7782 609.158,94.7782 605,89.5C 603.946,85.3445 604.78,81.6779 607.5,78.5 Z"/></g>
<g><path style="opacity:0.903" fill="#c9ac4e" d="M 4.5,60.5 C 2.89071,75.0525 5.55738,88.7192 12.5,101.5C 11.0813,102.451 9.41467,102.784 7.5,102.5C 4.01984,95.7145 1.35318,88.7145 -0.5,81.5C -0.5,80.8333 -0.5,80.1667 -0.5,79.5C 0.833333,79.5 2.16667,79.5 3.5,79.5C 3.1765,72.9779 3.50984,66.6446 4.5,60.5 Z"/></g>
<g><path style="opacity:0.869" fill="#a3832e" d="M 700.5,79.5 C 700.5,80.5 700.5,81.5 700.5,82.5C 701.833,82.5 703.167,82.5 704.5,82.5C 698.725,108.276 683.392,125.609 658.5,134.5C 459.684,133.51 260.35,133.177 60.5,133.5C 60.5,133.167 60.5,132.833 60.5,132.5C 256.5,132.667 452.5,132.5 648.5,132C 676.797,125.204 694.13,107.704 700.5,79.5 Z"/></g>
<g><path style="opacity:0.897" fill="#caa135" d="M 12.5,101.5 C 23.534,119.36 39.534,129.693 60.5,132.5C 60.5,132.833 60.5,133.167 60.5,133.5C 55.5377,133.599 50.2044,133.599 44.5,133.5C 28.24,127.911 15.9067,117.578 7.5,102.5C 9.41467,102.784 11.0813,102.451 12.5,101.5 Z"/></g>
<g><path style="opacity:0.991" fill="#dbb23f" d="M 44.5,133.5 C 50.2044,133.599 55.5377,133.599 60.5,133.5C 260.35,133.177 459.684,133.51 658.5,134.5C 655.368,135.36 652.368,136.36 649.5,137.5C 451.5,137.5 253.5,137.5 55.5,137.5C 51.7831,136.32 48.1165,134.987 44.5,133.5 Z"/></g>
</svg>
