<?xml version="1.0" encoding="UTF-8"?>
<!DOCTYPE svg PUBLIC "-//W3C//DTD SVG 1.1//EN" "http://www.w3.org/Graphics/SVG/1.1/DTD/svg11.dtd">
<svg xmlns="http://www.w3.org/2000/svg" version="1.1" width="144px" height="118px" style="shape-rendering:geometricPrecision; text-rendering:geometricPrecision; image-rendering:optimizeQuality; fill-rule:evenodd; clip-rule:evenodd" xmlns:xlink="http://www.w3.org/1999/xlink">
<g><path style="opacity:0.829" fill="#fedd52" d="M 63.5,-0.5 C 67.1667,-0.5 70.8333,-0.5 74.5,-0.5C 84.3123,4.75673 87.1457,12.7567 83,23.5C 76.9021,30.5541 69.4021,32.3874 60.5,29C 53.4459,22.9021 51.6126,15.4021 55,6.5C 57.4639,3.51895 60.2972,1.18562 63.5,-0.5 Z M 66.5,4.5 C 77.6966,5.57358 81.1966,11.2403 77,21.5C 67.9914,27.7539 61.8247,25.5872 58.5,15C 59.1675,9.8486 61.8342,6.3486 66.5,4.5 Z"/></g>
<g><path style="opacity:0.828" fill="#fedd52" d="M 26.5,19.5 C 43.8396,18.674 50.3396,26.674 46,43.5C 39.9021,50.5541 32.4021,52.3874 23.5,49C 16.4459,42.9021 14.6126,35.4021 18,26.5C 20.4639,23.519 23.2972,21.1856 26.5,19.5 Z M 30.5,24.5 C 41.0015,26.1747 44.1682,31.8414 40,41.5C 31.2641,47.7238 25.0974,45.7238 21.5,35.5C 22.0318,29.6488 25.0318,25.9822 30.5,24.5 Z"/></g>
<g><path style="opacity:0.83" fill="#fedd52" d="M 105.5,19.5 C 122.84,18.674 129.34,26.674 125,43.5C 118.902,50.5541 111.402,52.3874 102.5,49C 95.4459,42.9021 93.6126,35.4021 97,26.5C 99.4639,23.519 102.297,21.1856 105.5,19.5 Z M 109.5,24.5 C 119.976,26.1207 123.143,31.7873 119,41.5C 114.567,46.0546 109.734,46.5546 104.5,43C 98.4009,34.7052 100.068,28.5386 109.5,24.5 Z"/></g>
<g><path style="opacity:0.874" fill="#fedd52" d="M 143.5,111.5 C 143.5,113.5 143.5,115.5 143.5,117.5C 95.5,117.5 47.5,117.5 -0.5,117.5C -0.5,115.5 -0.5,113.5 -0.5,111.5C 1.01459,102.782 2.51459,93.7823 4,84.5C 6.78037,71.7394 13.947,62.5727 25.5,57C 31.1698,56.0254 36.6698,56.5254 42,58.5C 45.2072,52.5935 49.0405,47.0935 53.5,42C 67.6963,32.9361 79.863,35.1028 90,48.5C 92.1711,52.8422 94.3378,57.1756 96.5,61.5C 108.101,54.072 118.934,55.072 129,64.5C 133.388,70.6089 136.721,77.2755 139,84.5C 140.485,93.7823 141.985,102.782 143.5,111.5 Z M 66.5,41.5 C 75.2615,41.7986 81.7615,45.7986 86,53.5C 88.222,57.5007 90.0553,61.6674 91.5,66C 82.7353,79.8931 79.0687,95.0598 80.5,111.5C 74.5,111.5 68.5,111.5 62.5,111.5C 64.0463,93.0097 59.3796,76.343 48.5,61.5C 51.4181,51.9219 57.4181,45.2553 66.5,41.5 Z M 29.5,61.5 C 32.2706,61.4207 34.9373,61.9207 37.5,63C 39.4096,63.4083 40.4096,64.5749 40.5,66.5C 37.6315,81.582 37.9649,96.582 41.5,111.5C 29.8333,111.5 18.1667,111.5 6.5,111.5C 5.78299,96.7001 9.28299,83.0335 17,70.5C 20.2991,66.1179 24.4657,63.1179 29.5,61.5 Z M 108.5,61.5 C 117.262,61.7986 123.762,65.7986 128,73.5C 134.3,85.3703 137.134,98.037 136.5,111.5C 123.167,111.5 109.833,111.5 96.5,111.5C 99.5079,96.9672 100.341,82.3005 99,67.5C 101.843,64.8373 105.009,62.8373 108.5,61.5 Z M 45.5,69.5 C 49.3321,73.8193 52.1654,78.8193 54,84.5C 56.3965,93.3386 57.5632,102.339 57.5,111.5C 54.4816,111.665 51.4816,111.498 48.5,111C 43.2156,97.5185 42.2156,83.6851 45.5,69.5 Z M 92.5,75.5 C 95.3744,87.2604 94.5411,98.9271 90,110.5C 88.6439,111.38 87.1439,111.714 85.5,111.5C 85.0568,98.923 87.3902,86.923 92.5,75.5 Z"/></g>
</svg>
