<?xml version="1.0" encoding="UTF-8"?>
<!DOCTYPE svg PUBLIC "-//W3C//DTD SVG 1.1//EN" "http://www.w3.org/Graphics/SVG/1.1/DTD/svg11.dtd">
<svg xmlns="http://www.w3.org/2000/svg" version="1.1" width="129px" height="139px" style="shape-rendering:geometricPrecision; text-rendering:geometricPrecision; image-rendering:optimizeQuality; fill-rule:evenodd; clip-rule:evenodd" xmlns:xlink="http://www.w3.org/1999/xlink">
<g><path style="opacity:0.809" fill="#fedd52" d="M 114.5,-0.5 C 118.5,-0.5 122.5,-0.5 126.5,-0.5C 126.5,0.833333 127.167,1.5 128.5,1.5C 128.5,8.5 128.5,15.5 128.5,22.5C 126.062,49.707 113.562,71.0404 91,86.5C 91.7474,98.4737 91.5808,110.474 90.5,122.5C 83.0993,127.855 75.766,133.188 68.5,138.5C 67.8333,138.5 67.1667,138.5 66.5,138.5C 63.2894,130.702 59.7894,123.035 56,115.5C 50.8333,120 45.6667,124.5 40.5,129C 30.5638,132.15 20.5638,134.983 10.5,137.5C 10.3335,126.495 10.5002,115.495 11,104.5C 15.2205,97.8933 19.0538,91.06 22.5,84C 15.134,79.986 7.46734,76.486 -0.5,73.5C -0.5,72.8333 -0.5,72.1667 -0.5,71.5C 4.77544,63.8745 10.1088,56.2079 15.5,48.5C 25.485,47.5891 35.485,46.5891 45.5,45.5C 61.4292,19.3811 84.4292,4.04779 114.5,-0.5 Z M 121.5,4.5 C 125.833,37.5226 114,63.5226 86,82.5C 74.0337,72.2021 62.367,61.5354 51,50.5C 61.4198,29.8123 77.9198,15.979 100.5,9C 107.57,7.15469 114.57,5.65469 121.5,4.5 Z M 89.5,30.5 C 100.677,31.5289 104.177,37.1956 100,47.5C 95.534,51.8835 90.7007,52.3835 85.5,49C 79.8835,41.3462 81.2168,35.1796 89.5,30.5 Z M 26.5,52.5 C 31.2137,52.1734 35.8804,52.5067 40.5,53.5C 35.8663,61.9628 31.033,70.2961 26,78.5C 19.8778,75.5215 13.7111,72.6881 7.5,70C 11.4136,64.8405 15.0803,59.5072 18.5,54C 21.3647,53.8171 24.0314,53.3171 26.5,52.5 Z M 46.5,54.5 C 58.2968,65.1279 69.9635,75.9612 81.5,87C 73.9779,93.3564 66.3112,99.5231 58.5,105.5C 48.8796,98.2138 39.8796,90.2138 31.5,81.5C 36.7779,72.6068 41.7779,63.6068 46.5,54.5 Z M 27.5,87.5 C 36.5899,94.417 45.2566,101.917 53.5,110C 48.5,114.333 43.5,118.667 38.5,123C 30.9835,125.506 23.4835,128.006 16,130.5C 15.3333,122.833 15.3333,115.167 16,107.5C 20.0979,100.969 23.9312,94.3024 27.5,87.5 Z M 84.5,91.5 C 85.6057,100.333 86.1057,109.333 86,118.5C 80.8236,122.419 75.4902,126.086 70,129.5C 66.7049,123.814 63.8716,117.814 61.5,111.5C 69.2116,104.782 76.8783,98.1151 84.5,91.5 Z"/></g>
<g><path style="opacity:0.828" fill="#fedd52" d="M 86.5,25.5 C 103.84,24.674 110.34,32.674 106,49.5C 99.3953,56.9556 91.562,58.4556 82.5,54C 76.3606,47.9076 74.8606,40.741 78,32.5C 80.4639,29.519 83.2972,27.1856 86.5,25.5 Z M 89.5,30.5 C 81.2168,35.1796 79.8835,41.3462 85.5,49C 90.7007,52.3835 95.534,51.8835 100,47.5C 104.177,37.1956 100.677,31.5289 89.5,30.5 Z"/></g>
</svg>
