<?xml version="1.0" encoding="UTF-8"?>
<!DOCTYPE svg PUBLIC "-//W3C//DTD SVG 1.1//EN" "http://www.w3.org/Graphics/SVG/1.1/DTD/svg11.dtd">
<svg xmlns="http://www.w3.org/2000/svg" version="1.1" width="118px" height="136px" style="shape-rendering:geometricPrecision; text-rendering:geometricPrecision; image-rendering:optimizeQuality; fill-rule:evenodd; clip-rule:evenodd" xmlns:xlink="http://www.w3.org/1999/xlink">
<g><path style="opacity:0.802" fill="#fedd52" d="M 57.5,-0.5 C 59.5,-0.5 61.5,-0.5 63.5,-0.5C 80.2912,7.39122 97.2912,15.0579 114.5,22.5C 115.865,25.8316 116.865,29.1649 117.5,32.5C 117.5,43.1667 117.5,53.8333 117.5,64.5C 115.22,78.732 109.386,91.3987 100,102.5C 88.0518,115.636 74.5518,126.636 59.5,135.5C 58.1667,135.5 56.8333,135.5 55.5,135.5C 33.7076,122.205 16.8742,104.205 5,81.5C 2.70496,74.486 0.871627,67.486 -0.5,60.5C -0.5,49.5 -0.5,38.5 -0.5,27.5C 0.468218,25.3926 0.801552,23.0593 0.5,20.5C 19.794,14.0712 38.794,7.07124 57.5,-0.5 Z M 58.5,5.5 C 59.8734,5.34332 61.2068,5.50999 62.5,6C 78.4162,13.1274 94.4162,19.9607 110.5,26.5C 117.951,59.5714 109.284,87.4048 84.5,110C 75.9478,116.886 67.1145,123.386 58,129.5C 40.3776,118.211 25.7109,103.878 14,86.5C 4.92073,66.785 2.42073,46.285 6.5,25C 24.0311,18.7219 41.3644,12.2219 58.5,5.5 Z"/></g>
<g><path style="opacity:0.772" fill="#fedd52" d="M 82.5,46.5 C 86.0003,46.4954 87.5003,48.1621 87,51.5C 75.5,63.6667 64,75.8333 52.5,88C 51.5,88.6667 50.5,88.6667 49.5,88C 43.3333,82.5 37.1667,77 31,71.5C 30.5507,68.9063 31.5507,66.9063 34,65.5C 39.0512,71.054 44.5512,76.054 50.5,80.5C 61.5265,69.4744 72.1932,58.1411 82.5,46.5 Z"/></g>
</svg>
